<svg width="20" height="20" viewBox="0 0 20 20" fill="none" xmlns="http://www.w3.org/2000/svg">
<path d="M6.3582 2.97409C6.50769 2.89255 6.66654 3.01799 6.66654 3.18827V14.4657C6.66654 14.663 6.53145 14.8296 6.3582 14.9241L4.39987 16.0408C3.0332 16.8241 1.9082 16.1741 1.9082 14.5908V6.48242C1.9082 5.95742 2.2832 5.30742 2.74987 5.04076L6.3582 2.97409Z" fill="#010101"/>
<path d="M12.2219 5.06214C12.3922 5.1465 12.5 5.32013 12.5 5.51021V16.2868C12.5 16.6553 12.115 16.8972 11.783 16.7372L8.40798 15.1112C8.23498 15.0279 8.125 14.8528 8.125 14.6608V3.83878C8.125 3.46792 8.51456 3.22613 8.8469 3.39071L12.2219 5.06214Z" fill="#010101"/>
<path d="M18.3335 5.40904V13.5174C18.3335 14.0424 17.9585 14.6924 17.4918 14.959L14.7071 16.555C14.3738 16.746 13.9585 16.5054 13.9585 16.1212V5.32436C13.9585 5.14484 14.0547 4.97911 14.2106 4.89012L15.8418 3.95904C17.2085 3.1757 18.3335 3.8257 18.3335 5.40904Z" fill="#010101"/>
</svg>
