<svg width="24" height="24" viewBox="0 0 24 24" fill="none" xmlns="http://www.w3.org/2000/svg">
<path d="M11.5 14C10.66 14 10 13.325 10 12.5C10 11.675 10.675 11 11.5 11C12.325 11 13 11.675 13 12.5C13 13.325 12.34 14 11.5 14Z" fill="#010101"/>
<path d="M18.5 14C17.66 14 17 13.325 17 12.5C17 11.675 17.675 11 18.5 11C19.325 11 20 11.675 20 12.5C20 13.325 19.34 14 18.5 14Z" fill="#010101"/>
<path d="M4.5 14C3.66 14 3 13.325 3 12.5C3 11.675 3.675 11 4.5 11C5.325 11 6 11.675 6 12.5C6 13.325 5.34 14 4.5 14Z" fill="#010101"/>
</svg>
