<svg width="20" height="20" viewBox="0 0 20 20" fill="none" xmlns="http://www.w3.org/2000/svg">
<path d="M7.62747 4.50633C8.68301 2.61279 9.21076 1.66602 9.99984 1.66602C10.7889 1.66602 11.3167 2.61278 12.3722 4.50632L12.6453 4.99621C12.9453 5.53429 13.0952 5.80334 13.3291 5.98086C13.5629 6.15837 13.8541 6.22427 14.4366 6.35606L14.9669 6.47604C17.0166 6.93982 18.0415 7.1717 18.2853 7.95579C18.5292 8.73985 17.8305 9.55693 16.4331 11.1909L16.0716 11.6137C15.6745 12.078 15.4759 12.3102 15.3866 12.5974C15.2973 12.8847 15.3273 13.1944 15.3873 13.814L15.442 14.378C15.6533 16.5582 15.7589 17.6483 15.1206 18.1329C14.4822 18.6174 13.5226 18.1756 11.6034 17.292L11.1069 17.0634C10.5616 16.8123 10.2889 16.6867 9.99984 16.6867C9.71076 16.6867 9.43809 16.8123 8.89276 17.0634L8.39626 17.292C6.47707 18.1756 5.51749 18.6174 4.87913 18.1329C4.24077 17.6483 4.34641 16.5582 4.55767 14.378L4.61232 13.814C4.67236 13.1944 4.70238 12.8847 4.61306 12.5974C4.52374 12.3102 4.3252 12.078 3.92811 11.6137L3.56659 11.1909C2.16921 9.55693 1.47052 8.73985 1.71436 7.95579C1.95819 7.1717 2.98306 6.93982 5.03279 6.47604L5.56308 6.35606C6.14555 6.22427 6.43678 6.15837 6.67062 5.98086C6.90446 5.80334 7.05445 5.5343 7.3544 4.99621L7.62747 4.50633Z" fill="#FFD42F" stroke="#FFD42F" stroke-width="2"/>
</svg>
