<svg width="24" height="24" viewBox="0 0 24 24" fill="none" xmlns="http://www.w3.org/2000/svg">
<path d="M11.9402 2.20983L9.5302 7.81983H7.1202C6.7202 7.81983 6.3302 7.84983 5.9502 7.92983L6.9502 5.52983L6.9902 5.43983L7.0502 5.27983C7.0802 5.20983 7.1002 5.14983 7.1302 5.09983C8.2902 2.40983 9.5902 1.56983 11.9402 2.20983Z" fill="#010101"/>
<path d="M18.7301 8.08953L18.7101 8.07953C18.1101 7.90953 17.5001 7.81953 16.8801 7.81953H10.6201L12.8701 2.58953L12.9001 2.51953C13.0401 2.56953 13.1901 2.63953 13.3401 2.68953L15.5501 3.61953C16.7801 4.12953 17.6401 4.65953 18.1701 5.29953C18.2601 5.41953 18.3401 5.52953 18.4201 5.65953C18.5101 5.79953 18.5801 5.93953 18.6201 6.08953C18.6601 6.17953 18.6901 6.25953 18.7101 6.34953C18.8601 6.85953 18.8701 7.43953 18.7301 8.08953Z" fill="#010101"/>
<path d="M12.52 17.6601H12.77C13.07 17.6601 13.32 17.3901 13.32 17.0601C13.32 16.6401 13.2 16.5801 12.94 16.4801L12.52 16.3301V17.6601Z" fill="#010101"/>
<path d="M18.2902 9.52031C17.8402 9.39031 17.3702 9.32031 16.8802 9.32031H7.12023C6.44023 9.32031 5.80023 9.45031 5.20023 9.71031C3.46023 10.4603 2.24023 12.1903 2.24023 14.2003V16.1503C2.24023 16.3903 2.26023 16.6203 2.29023 16.8603C2.51023 20.0403 4.21023 21.7403 7.39023 21.9503C7.62023 21.9803 7.85023 22.0003 8.10023 22.0003H15.9002C19.6002 22.0003 21.5502 20.2403 21.7402 16.7403C21.7502 16.5503 21.7602 16.3503 21.7602 16.1503V14.2003C21.7602 11.9903 20.2902 10.1303 18.2902 9.52031Z" fill="#010101"/>
<path d="M10.6802 14.1391C10.6802 14.5591 10.8002 14.6191 11.0602 14.7191L11.4802 14.8691V13.5391H11.2302C10.9202 13.5391 10.6802 13.8091 10.6802 14.1391Z" fill="#010101"/>
</svg>
