<svg width="20" height="20" viewBox="0 0 20 20" fill="none" xmlns="http://www.w3.org/2000/svg">
<path d="M10 10C9.73033 10 9.51172 10.2186 9.51172 10.4883L9.52148 10.5869C9.56056 10.7775 9.7108 10.9277 9.90137 10.9668L10 10.9766C10.2359 10.9766 10.4329 10.8093 10.4785 10.5869L10.4883 10.4883C10.4883 10.2524 10.321 10.0554 10.0986 10.0098L10 10ZM10 10.9766V10M10 10.9766V10" fill="#010101" stroke="#010101" stroke-width="2"/>
<path d="M9.99984 1.66602C5.41136 1.66602 1.6665 5.4111 1.6665 9.99935C1.6665 14.5879 5.41159 18.3327 9.99984 18.3327C14.5884 18.3327 18.3332 14.5876 18.3332 9.99935C18.3332 5.41087 14.5881 1.66602 9.99984 1.66602ZM9.99984 3.65169C13.1679 3.65169 15.8012 5.98464 16.2724 9.02279H14.579C13.5054 9.02279 12.4854 8.59196 11.7804 7.84079C10.8169 6.8139 9.18288 6.81357 8.21924 7.84076C7.51432 8.59196 6.49427 9.02279 5.42061 9.02279H3.72731C4.19844 5.98464 6.83177 3.65169 9.99984 3.65169ZM9.99984 11.9525C9.19215 11.9525 8.53499 11.2954 8.53499 10.4876C8.53499 9.67988 9.19215 9.02279 9.99984 9.02279C10.8076 9.02279 11.4647 9.67988 11.4647 10.4876C11.4647 11.2954 10.8076 11.9525 9.99984 11.9525ZM4.08903 12.3137C4.64795 12.0944 5.05153 11.9525 5.60531 11.9525C7.38551 11.9525 8.76999 13.5389 8.50182 15.3213H8.50068C8.46091 15.5928 8.38305 15.8574 8.2694 16.1073C6.35667 15.5646 4.80879 14.1456 4.08903 12.3137ZM11.7307 16.1071C11.6168 15.8574 11.5388 15.5928 11.499 15.3213H11.4979C11.1854 13.2443 13.1027 11.5305 15.0901 12.0356C15.2996 12.0889 15.5618 12.1769 15.9106 12.3137C15.1909 14.1455 13.6432 15.5644 11.7307 16.1071Z" fill="#010101"/>
</svg>
